<svg id="visual" viewBox="0 0 900 600" width="900" height="600" xmlns="http://www.w3.org/2000/svg" xmlns:xlink="http://www.w3.org/1999/xlink" version="1.1"><rect x="0" y="0" width="900" height="600" fill="#dfdfdf"></rect><path d="M0 108L30 125C60 142 120 176 180 186.3C240 196.7 300 183.3 360 163.2C420 143 480 116 540 104.3C600 92.7 660 96.3 720 97.7C780 99 840 98 870 97.5L900 97L900 0L870 0C840 0 780 0 720 0C660 0 600 0 540 0C480 0 420 0 360 0C300 0 240 0 180 0C120 0 60 0 30 0L0 0Z" fill="#343331" stroke-linecap="round" stroke-linejoin="miter"></path></svg>