<svg id="visual" viewBox="0 0 900 600" width="900" height="600" xmlns="http://www.w3.org/2000/svg" xmlns:xlink="http://www.w3.org/1999/xlink" version="1.1"><rect x="0" y="0" width="900" height="600" fill="#dfdfdf"></rect><path d="M0 490L30 473C60 456 120 422 180 411.7C240 401.3 300 414.7 360 434.8C420 455 480 482 540 493.7C600 505.3 660 501.7 720 500.3C780 499 840 500 870 500.5L900 501L900 601L870 601C840 601 780 601 720 601C660 601 600 601 540 601C480 601 420 601 360 601C300 601 240 601 180 601C120 601 60 601 30 601L0 601Z" fill="#343331" stroke-linecap="round" stroke-linejoin="miter"></path></svg>